<?xml version="1.0" encoding="UTF-8"?><svg id="_层_2" xmlns="http://www.w3.org/2000/svg" viewBox="0 0 48.32 48.32"><defs><style>.cls-1{fill:none;}.cls-2{fill:#f94f56;}.cls-3{fill:#172d72;}</style></defs><g id="_层_1-2"><g><g><path class="cls-3" d="M23.17,25.53c-7.04,0-12.77-5.73-12.77-12.77,0-7.03,5.73-12.76,12.77-12.76s12.76,5.73,12.76,12.76-5.73,12.77-12.76,12.77Zm0-22.03c-5.11,0-9.26,4.15-9.26,9.26s4.16,9.26,9.26,9.26,9.26-4.15,9.26-9.26S28.27,3.51,23.17,3.51Z"/><path class="cls-3" d="M2.14,46.56c-.97,0-1.76-.79-1.76-1.76,0-12.56,10.22-22.78,22.79-22.78,5.56,0,10.91,2.03,15.08,5.7,.73,.64,.8,1.75,.15,2.48s-1.75,.79-2.48,.15c-3.52-3.11-8.05-4.83-12.76-4.83-10.63,0-19.27,8.65-19.27,19.27,0,.97-.78,1.76-1.75,1.76Z"/><g><path class="cls-2" d="M46.18,42.32h-11.99c-.97,0-1.76-.79-1.76-1.76s.79-1.76,1.76-1.76h11.99c.97,0,1.76,.79,1.76,1.76s-.79,1.76-1.76,1.76Z"/><path class="cls-2" d="M40.18,48.32c-.97,0-1.76-.79-1.76-1.76v-11.99c0-.97,.79-1.76,1.76-1.76s1.76,.79,1.76,1.76v11.99c0,.97-.79,1.76-1.76,1.76h0Z"/></g></g><rect class="cls-1" width="48.32" height="48.32"/></g></g></svg>