<?xml version="1.0" encoding="UTF-8"?><svg id="_层_2" xmlns="http://www.w3.org/2000/svg" viewBox="0 0 48.32 48.32"><defs><style>.cls-1{fill:none;}.cls-2{fill:#f94f56;}.cls-3{fill:#172d72;}</style></defs><g id="_层_1-2"><g><g><circle class="cls-2" cx="24.08" cy="24.51" r="11.41"/><g><path class="cls-3" d="M23.95,48.32C10.74,48.32,0,37.57,0,24.37S10.74,.42,23.95,.42s23.95,10.74,23.95,23.95c0,3.12-.59,6.15-1.76,9.02-.5,1.22-1.9,1.81-3.12,1.32-1.23-.5-1.81-1.9-1.32-3.12,.93-2.29,1.41-4.74,1.41-7.22,0-10.56-8.6-19.16-19.16-19.16S4.79,13.8,4.79,24.37s8.6,19.16,19.16,19.16c2.99,0,5.86-.67,8.52-1.99,1.18-.59,2.62-.11,3.21,1.08,.59,1.18,.11,2.62-1.08,3.21-3.31,1.65-6.95,2.5-10.65,2.49"/><path class="cls-3" d="M23.95,16.38c-4.4,0-7.98,3.58-7.98,7.98s3.58,7.98,7.98,7.98,7.98-3.57,7.98-7.98h0c0-4.4-3.58-7.98-7.98-7.98m0,20.76c-7.04,0-12.77-5.73-12.77-12.77s5.73-12.77,12.77-12.77,12.77,5.73,12.77,12.77c0,7.05-5.71,12.77-12.77,12.77h0"/><path class="cls-3" d="M38.17,39.57c-.44,0-.87-.04-1.28-.13-2.97-.61-4.96-3.26-4.96-6.58V13.99c0-1.32,1.07-2.4,2.39-2.4,1.32,0,2.4,1.07,2.4,2.39h0v18.88c0,.62,.15,1.68,1.14,1.89,1.1,.22,2.77-.68,3.86-3.21,.55-1.2,1.97-1.74,3.17-1.19,1.17,.53,1.71,1.9,1.23,3.09-1.87,4.34-5.14,6.13-7.95,6.13"/></g></g><rect class="cls-1" width="48.32" height="48.32"/></g></g></svg>