<?xml version="1.0" encoding="UTF-8"?><svg id="_层_2" xmlns="http://www.w3.org/2000/svg" viewBox="0 0 48.32 48.32"><defs><style>.cls-1{fill:none;}.cls-2{fill:#f94f56;}.cls-3{fill:#172d72;}</style></defs><g id="_层_1-2"><g><g><path class="cls-3" d="M24.16,0C10.7,0,0,10.7,0,24.16s10.7,24.16,24.16,24.16,24.16-10.7,24.16-24.16S37.62,0,24.16,0Zm0,41.42c-9.66,0-17.26-7.59-17.26-17.26S14.5,6.9,24.16,6.9s17.26,7.59,17.26,17.26-7.59,17.26-17.26,17.26Z"/><path class="cls-2" d="M30.36,13h-12.4c-1.37,0-2.47,1.11-2.47,2.48v19.84l8.67-3.72,8.68,3.72V15.48c0-1.37-1.11-2.48-2.48-2.48Z"/></g><rect class="cls-1" width="48.32" height="48.32"/></g></g></svg>