<svg xmlns="http://www.w3.org/2000/svg" viewBox="0 0 48.32 48.32"><defs><style>.cls-1,.cls-2,.cls-3{fill:none;}.cls-1{stroke:#172d72;}.cls-1,.cls-3{stroke-miterlimit:10;stroke-width:4.4px;}.cls-3{stroke:#f84f56;stroke-linecap:round;}</style></defs><g id="图层_2" data-name="图层 2"><g id="图层_1-2" data-name="图层 1"><path class="cls-1" d="M25.19,5.15A19.75,19.75,0,0,0,11,38.28a1,1,0,0,1,0,1.25L8.73,42.29a1.46,1.46,0,0,0,1.12,2.39h15.5a20,20,0,0,0,20.11-19.5A19.8,19.8,0,0,0,25.19,5.15Z"/><rect class="cls-2" x="3.17" y="2.77" width="45.07" height="44.91"/><path class="cls-3" d="M22.58,5.05A19.84,19.84,0,0,0,8.39,38.3a1,1,0,0,1,0,1.26l-2.3,2.77a1.46,1.46,0,0,0,1.12,2.4h15.5a19.84,19.84,0,1,0-.16-39.68Z"/><rect class="cls-2" width="48.32" height="48.32"/></g></g></svg>