<?xml version="1.0" encoding="UTF-8"?><svg id="_层_2" xmlns="http://www.w3.org/2000/svg" viewBox="0 0 48.32 48.32"><defs><style>.cls-1{fill:none;}.cls-2{fill:#172d72;}.cls-3{fill:#f94f56;stroke:#f94f56;stroke-miterlimit:10;stroke-width:2.11px;}</style></defs><g id="_层_1-2"><g><g><path class="cls-2" d="M24.16,0C10.7,0,0,10.7,0,24.16s10.7,24.16,24.16,24.16,24.16-10.7,24.16-24.16S37.62,0,24.16,0Zm0,41.42c-9.66,0-17.26-7.59-17.26-17.26S14.5,6.9,24.16,6.9s17.26,7.59,17.26,17.26-7.59,17.26-17.26,17.26Z"/><path class="cls-3" d="M22.44,33.32c-.47,0-.93-.18-1.29-.54l-7.29-7.32c-.71-.71-.71-1.87,0-2.59,.71-.71,1.87-.71,2.58,0l6,6.02,11.46-11.51c.71-.72,1.86-.72,2.58,0,.71,.71,.71,1.87,0,2.58l-12.75,12.8c-.36,.36-.82,.54-1.29,.54Z"/></g><rect class="cls-1" width="48.32" height="48.32"/></g></g></svg>