<?xml version="1.0" encoding="UTF-8"?><svg id="_层_2" xmlns="http://www.w3.org/2000/svg" viewBox="0 0 48.32 48.32"><defs><style>.cls-1,.cls-2{fill:none;}.cls-3{fill:#f94f56;}.cls-2{stroke:#172d72;stroke-miterlimit:10;stroke-width:5px;}</style></defs><g id="_层_1-2"><g><g><path class="cls-3" d="M36.91,27c-1.7,0-3.08-1.42-3.08-3.17s1.38-3.17,3.08-3.17,3.08,1.42,3.08,3.17c0,1.76-1.38,3.17-3.08,3.17Zm-12.84,0c-1.7,0-3.08-1.42-3.08-3.17s1.38-3.17,3.08-3.17,3.08,1.42,3.08,3.17c0,1.76-1.38,3.17-3.08,3.17Z"/><path class="cls-3" d="M8.15,23.83c0,1.75,1.38,3.17,3.08,3.17s3.08-1.42,3.08-3.17-1.38-3.17-3.08-3.17-3.08,1.42-3.08,3.17h0Z"/><path class="cls-2" d="M23.61,2.56C12.26,2.8,3.02,12.07,2.8,23.42c-.11,5.71,2.03,10.91,5.6,14.79,.35,.38,.36,.95,.03,1.35l-2.47,2.97c-.85,1.02-.12,2.57,1.2,2.57H23.79c11.68,0,21.4-9.3,21.56-20.98,.16-12.03-9.67-21.81-21.73-21.56Z"/></g><rect class="cls-1" width="48.32" height="48.32"/></g></g></svg>