<svg xmlns="http://www.w3.org/2000/svg" viewBox="0 0 48.32 48.32"><defs><style>.cls-1{fill:#182e72;}.cls-2{fill:#fe3b50;}.cls-3{fill:none;}</style></defs><g id="图层_2" data-name="图层 2"><g id="图层_1-2" data-name="图层 1"><path class="cls-1" d="M44.54,41.52A2.08,2.08,0,0,1,41.2,43c-1.2-1-2.38-2-3.56-3l-7.79-6.56-7.13-6-8.53-7.19L6.3,13.63,4,11.7A2.08,2.08,0,0,1,6.68,8.51l5.49,4.63L20,19.72l6.82,5.76L34.52,32l7.94,6.69c.42.36.84.72,1.27,1.07A2.13,2.13,0,0,1,44.54,41.52Z"/><path class="cls-1" d="M33.62,39.3a22.75,22.75,0,0,1-7.21,2.21A20.9,20.9,0,0,1,14.13,39,35.58,35.58,0,0,1,6.84,33.9,44.58,44.58,0,0,1,.92,27.54a2.31,2.31,0,0,1,0-3A46.05,46.05,0,0,1,7.5,17.62a.26.26,0,0,1,.42,0c1,.89,2.09,1.77,3.14,2.65.33.28.33.27,0,.54a42.42,42.42,0,0,0-5.1,5c-.12.14-.2.23,0,.42a37.05,37.05,0,0,0,9.39,8,19.7,19.7,0,0,0,6,2.37A14.53,14.53,0,0,0,29.28,36a.49.49,0,0,1,.57.11l3.58,3Z"/><path class="cls-1" d="M14.82,12.75a24,24,0,0,1,5.26-1.85,20.31,20.31,0,0,1,13.44,1.86,35.25,35.25,0,0,1,8.11,5.58,46,46,0,0,1,5.71,6.13,2.39,2.39,0,0,1,0,3.16,45.33,45.33,0,0,1-6.43,6.78c-.11.09-.19.18-.35,0l-3.42-2.89-.1-.07c.85-.7,1.66-1.4,2.43-2.15,1-1,2-2,2.94-3.12.09-.1.15-.16,0-.3A35.94,35.94,0,0,0,32.2,17.39a18.55,18.55,0,0,0-5.64-2,14.43,14.43,0,0,0-6.93.53c-.76.25-.76.26-1.37-.26L15.14,13Z"/><path class="cls-2" d="M21.36,18.22A8.33,8.33,0,0,1,30,19.92a8.19,8.19,0,0,1,2.48,7.66C32.19,27.41,21.56,18.45,21.36,18.22Z"/><path class="cls-2" d="M27.25,33.92A8.45,8.45,0,0,1,16,24.45Z"/><rect class="cls-3" width="48.32" height="48.32"/></g></g></svg>