<svg xmlns="http://www.w3.org/2000/svg" viewBox="0 0 48.32 48.32"><defs><style>.cls-1{fill:#172d72;}.cls-2,.cls-3{fill:none;}.cls-2{stroke:#172d72;stroke-linecap:round;stroke-linejoin:round;stroke-width:4.4px;}</style></defs><g id="图层_2" data-name="图层 2"><g id="图层_1-2" data-name="图层 1"><path class="cls-1" d="M22.87,26.55,1.05,4.48A2.06,2.06,0,0,1,2.51,1H46.17a2.06,2.06,0,0,1,1.47,3.51L25.81,26.55A2.06,2.06,0,0,1,22.87,26.55Z"/><path class="cls-1" d="M25.77,42.85H22.08c-.42,0-.76-1.1-.76-1.1V22.64c0-.61.34-1.11.76-1.11h3.69c.42,0,.76.5.76,1.11V41.75C26.53,42.36,26.19,42.85,25.77,42.85Z"/><line class="cls-2" x1="20.79" y1="41.34" x2="20.79" y2="18.92"/><line class="cls-2" x1="27.84" y1="45.41" x2="27.84" y2="19.55"/><line class="cls-2" x1="20.79" y1="41.53" x2="27.84" y2="45.41"/><rect class="cls-3" width="48.32" height="48.32"/></g></g></svg>