<?xml version="1.0" encoding="UTF-8"?><svg id="_层_2" xmlns="http://www.w3.org/2000/svg" viewBox="0 0 48.32 48.32"><defs><style>.cls-1{fill:none;}.cls-2{fill:#f94f56;}</style></defs><g id="_层_1-2"><g><path class="cls-2" d="M24.21,46.67c-.78,0-1.51-.24-2.14-.75-.51-.42-13.04-10.11-18.04-17.98C2.36,25.34,.07,21.81,.07,16.8,.07,8.44,6.31,1.65,13.95,1.65c3.89,0,7.6,1.78,10.26,4.89,2.63-3.14,6.31-4.89,10.23-4.89,7.66,0,13.88,6.79,13.88,15.15,0,4.92-2.14,8.3-3.89,11.04l-.06,.09c-5.01,7.88-17.53,17.59-18.04,17.98-.6,.48-1.33,.75-2.11,.75h0Z"/><rect class="cls-1" width="48.32" height="48.32"/></g></g></svg>