<svg xmlns="http://www.w3.org/2000/svg" viewBox="0 0 48.32 48.32"><defs><style>.cls-1,.cls-2{fill:none;}.cls-1{stroke:#172d72;stroke-linecap:round;stroke-linejoin:round;stroke-width:4.4px;}</style></defs><g id="图层_2" data-name="图层 2"><g id="图层_1-2" data-name="图层 1"><path class="cls-1" d="M24.26,44.77a3,3,0,0,1-1.94-.67C21.86,43.72,10.55,35.05,6,28c-1.49-2.32-3.57-5.48-3.57-10C2.45,10.55,8.1,4.48,15,4.48a12.26,12.26,0,0,1,9.27,4.37A12,12,0,0,1,33.5,4.48C40.42,4.48,46,10.55,46,18c0,4.4-1.93,7.42-3.51,9.88l-.06.08c-4.52,7-15.83,15.75-16.29,16.1a3.06,3.06,0,0,1-1.91.67Z"/><rect class="cls-2" x="2.39" y="3" width="43.64" height="43.25"/><rect class="cls-2" width="48.32" height="48.32"/></g></g></svg>