<?xml version="1.0" encoding="UTF-8"?><svg id="_层_2" xmlns="http://www.w3.org/2000/svg" viewBox="0 0 48.32 48.32"><defs><style>.cls-1{fill:none;}.cls-2{fill:#f94f56;}.cls-3{fill:#172d72;}</style></defs><g id="_层_1-2"><g><g><polygon class="cls-2" points="5.65 7.54 43.74 6.68 41.24 11.99 25.21 23.81 15.03 19.48 4.96 10.24 4.39 7.78 5.65 7.54"/><path class="cls-3" d="M40.85,44.71H7.44c-4.04,0-7.32-3.28-7.32-7.32V12.32C.13,8.29,3.41,5.01,7.44,5.01H40.85c4.04,0,7.32,3.28,7.32,7.32v25.07c0,4.04-3.28,7.32-7.32,7.32ZM7.44,9.27c-1.67,0-3.05,1.38-3.05,3.05v25.07c0,1.67,1.38,3.05,3.05,3.05H40.85c1.67,0,3.05-1.38,3.05-3.05V12.32c0-1.67-1.38-3.05-3.05-3.05H7.44Z"/><path class="cls-3" d="M24.15,25.81c-1.71,0-3.41-.56-4.79-1.67L1.9,9.99l2.69-3.31,17.46,14.11c1.21,.98,3.02,.98,4.23,0L43.74,6.68l2.69,3.31-17.46,14.11c-1.41,1.15-3.12,1.71-4.82,1.71Z"/></g><rect class="cls-1" width="48.32" height="48.32"/></g></g></svg>