<?xml version="1.0" encoding="UTF-8"?><svg id="_层_2" xmlns="http://www.w3.org/2000/svg" viewBox="0 0 48.32 48.32"><defs><style>.cls-1{fill:none;}.cls-2{fill:#f94f56;}.cls-3{fill:#172d72;}</style></defs><g id="_层_1-2"><g><g><path class="cls-3" d="M25.08,10.29c-2.84,0-5.15-2.31-5.15-5.15S22.24,0,25.08,0s5.15,2.31,5.15,5.15-2.31,5.15-5.15,5.15Zm0-6.72c-.87,0-1.57,.7-1.57,1.57s.7,1.57,1.57,1.57,1.57-.7,1.57-1.57-.7-1.57-1.57-1.57Z"/><path class="cls-2" d="M31.14,36.8c.44,.9,.69,1.91,.69,2.98,0,3.73-3.02,6.75-6.75,6.75s-6.75-3.02-6.75-6.75c0-1.03,.23-2,.64-2.87"/><path class="cls-3" d="M25.08,48.32c-4.71,0-8.54-3.83-8.54-8.54,0-1.27,.27-2.49,.81-3.63l3.24,1.52c-.31,.66-.47,1.37-.47,2.11,0,2.74,2.23,4.96,4.96,4.96s4.96-2.23,4.96-4.96c0-.77-.17-1.51-.51-2.19l3.21-1.58c.58,1.18,.88,2.45,.88,3.77,0,4.71-3.83,8.54-8.54,8.54h0Zm-15.68-8.9c-2.32,0-4.2-1.88-4.2-4.2s1.88-4.2,4.2-4.2h1.97c.99,0,1.79,.8,1.79,1.79s-.8,1.79-1.79,1.79h-1.97c-.34,0-.62,.29-.62,.62s.29,.62,.62,.62c.99,0,1.79,.8,1.79,1.79s-.8,1.79-1.79,1.79Z"/><path class="cls-3" d="M40.76,39.42H16.68c-.99,0-1.79-.8-1.79-1.79s.8-1.79,1.79-1.79h24.07c.34,0,.62-.29,.62-.62s-.29-.62-.62-.62h-1.96c-.99,0-1.79-.8-1.79-1.79s.8-1.79,1.79-1.79h1.96c2.32,0,4.2,1.88,4.2,4.2s-1.88,4.2-4.2,4.2h0Z"/><path class="cls-3" d="M38.83,34.21c-.99,0-1.79-.8-1.79-1.79v-9.8c0-2.06-.54-4.09-1.56-5.88-.13-.23-.27-.45-.41-.67-.54-.82-.32-1.93,.51-2.48,.82-.54,1.93-.32,2.48,.51,.19,.28,.37,.58,.54,.88,1.33,2.33,2.03,4.97,2.03,7.65v9.8c0,.99-.8,1.79-1.79,1.79h0Zm-27.51,0c-.99,0-1.79-.8-1.79-1.79v-9.8c0-4.14,1.62-8.04,4.56-10.98,2.94-2.94,6.84-4.56,10.98-4.56,3.23,0,6.33,.99,8.97,2.87,.8,.57,.99,1.69,.42,2.49-.57,.81-1.69,.99-2.49,.42-2.03-1.44-4.42-2.21-6.9-2.21-6.6,0-11.97,5.37-11.97,11.97v9.8c0,.99-.8,1.79-1.79,1.79h0Z"/><path class="cls-3" d="M9.37,44.97c-.73-.66-.79-1.79-.14-2.52L38.84,9.42c.66-.73,1.79-.79,2.52-.14s.79,1.79,.14,2.52L11.9,44.83c-.66,.73-1.79,.79-2.52,.14Z"/></g><rect class="cls-1" width="48.32" height="48.32"/></g></g></svg>