<?xml version="1.0" encoding="UTF-8"?><svg id="_层_2" xmlns="http://www.w3.org/2000/svg" viewBox="0 0 48.32 48.43"><defs><style>.cls-1{fill:none;}.cls-2{fill:#f94f56;}.cls-3{fill:#172d72;}</style></defs><g id="_层_1-2"><g><g><path class="cls-3" d="M39.95,35.49V18.84c0-7.22-5.18-13.24-12.02-14.54V.34h-5.55v3.96c-6.85,1.3-12.02,7.31-12.02,14.54v16.65h-1.85v3.7H41.8v-3.7h-1.85Zm-3.7,0H14.05V18.84c0-6.13,4.97-11.1,11.1-11.1s11.1,4.97,11.1,11.1v16.65Z"/><path class="cls-3" d="M21.45,41.04c0,2.04,1.66,3.7,3.7,3.7s3.7-1.66,3.7-3.7h3.7c0,4.09-3.31,7.4-7.4,7.4-4.09,0-7.4-3.31-7.4-7.4h3.7Z"/><rect class="cls-2" x="28.85" y="17.91" width="3.7" height="13.87"/></g><rect class="cls-1" width="48.32" height="48.32"/></g></g></svg>