<?xml version="1.0" encoding="UTF-8"?><svg id="_层_2" xmlns="http://www.w3.org/2000/svg" viewBox="0 0 48.32 48.32"><defs><style>.cls-1{fill:none;}.cls-2{fill:#f94f56;}.cls-3{fill:#172d72;}</style></defs><g id="_层_1-2"><g><g><path class="cls-3" d="M35.09,21.61c2.64-2.08,4.33-5.3,4.33-8.92,0-6.27-5.08-11.36-11.35-11.36s-11.36,5.08-11.36,11.36c0,3.62,1.69,6.84,4.33,8.92-6.97,2.79-11.9,9.61-11.9,17.58v5.68c0,1.05,.85,1.89,1.89,1.89H45.09c1.05,0,1.89-.85,1.89-1.89v-5.68c0-7.97-4.93-14.79-11.9-17.58h0Zm-14.6-8.92c0-4.18,3.39-7.57,7.57-7.57s7.57,3.39,7.57,7.57-3.39,7.57-7.57,7.57-7.57-3.39-7.57-7.57h0Zm22.71,28.39c0,1.05-.85,1.89-1.89,1.89H14.81c-1.05,0-1.89-.85-1.89-1.89v-1.89c0-8.36,6.78-15.14,15.14-15.14s15.14,6.78,15.14,15.14v1.89h0Z"/><path class="cls-2" d="M16.7,22.15c0-1.05-.85-1.89-1.89-1.89h0c-3.14,0-5.68-2.54-5.68-5.68s2.54-5.68,5.68-5.68h0c1.05,0,1.89-.85,1.89-1.89s-.85-1.89-1.89-1.89h0c-5.23,0-9.46,4.24-9.46,9.46,0,2.88,1.28,5.45,3.31,7.19-4.22,2.22-7.1,6.64-7.1,11.73,0,1.05,.85,1.89,1.89,1.89s1.89-.85,1.89-1.89c0-5.23,4.24-9.46,9.46-9.46,1.05,0,1.89-.85,1.89-1.89h0Z"/></g><rect class="cls-1" width="48.32" height="48.32"/></g></g></svg>