<?xml version="1.0" encoding="UTF-8"?><svg id="_层_2" xmlns="http://www.w3.org/2000/svg" viewBox="0 0 48.32 48.32"><defs><style>.cls-1{fill:none;}.cls-2{fill:#f94f56;}.cls-3{fill:#172d72;}</style></defs><g id="_层_1-2"><g><g><path class="cls-3" d="M45.3,1.23c-1.46-1.19-3.41-1.39-5.08-.53L4.92,18.9c-1.4,.72-2.35,2.09-2.52,3.66-.17,1.57,.44,3.11,1.61,4.09l6.39,5.63-.13,13.14c0,.93,.52,1.78,1.35,2.19,.83,.41,1.83,.3,2.56-.28l7.41-5.91,6.89,5.79c.86,.72,1.93,1.11,3.02,1.11,.47,0,.94-.07,1.4-.21,1.54-.47,2.71-1.68,3.14-3.23L46.85,6.1c.51-1.81-.09-3.68-1.55-4.87Zm-13.87,42.19l-8.28-6.96c-.45-.38-1-.56-1.55-.56-.55,0-1.07,.19-1.5,.53l-4.99,3.98,.09-9.18c0-.7-.29-1.37-.82-1.83l-7.14-6.29L42.12,5.14l-10.69,38.28Z"/><path class="cls-2" d="M21.92,28.69c-.62,0-1.23-.23-1.7-.71-.94-.94-.94-2.46,0-3.4l9.01-9c.94-.94,2.46-.94,3.4,0s.94,2.46,0,3.4l-9.01,9c-.47,.47-1.09,.71-1.7,.71Z"/></g><rect class="cls-1" width="48.32" height="48.32"/></g></g></svg>