<?xml version="1.0" encoding="UTF-8"?><svg id="_层_2" xmlns="http://www.w3.org/2000/svg" viewBox="0 0 48.32 48.32"><defs><style>.cls-1{fill:none;}.cls-2{fill:#f94f56;}.cls-3{fill:#172d72;}</style></defs><g id="_层_1-2"><g><g><circle class="cls-2" cx="24.16" cy="24.16" r="13.46"/><path class="cls-3" d="M47.22,28.69l-4.09-3.1c.04-.43,.09-.91,.09-1.42s-.04-.99-.09-1.42l4.09-3.1c1.12-.86,1.42-2.37,.69-3.66l-4.57-7.72c-.52-.91-1.51-1.47-2.54-1.47-.34,0-.65,.04-.99,.17l-4.87,1.9c-.82-.56-1.68-1.03-2.54-1.42l-.73-4.96C31.44,1.06,30.24,.02,28.77,.02h-9.22c-1.47,0-2.67,1.03-2.89,2.41l-.69,5c-.86,.39-1.68,.86-2.54,1.42l-4.87-1.9c-.34-.13-.69-.17-1.03-.17-1.03,0-2.03,.52-2.5,1.42L.41,15.97c-.73,1.21-.43,2.8,.69,3.66l4.09,3.1c-.04,.52-.09,.99-.09,1.42s0,.91,.09,1.42l-4.09,3.1c-1.12,.86-1.42,2.37-.69,3.66l4.57,7.72c.52,.91,1.51,1.47,2.54,1.47,.34,0,.65-.04,.99-.17l4.87-1.9c.82,.56,1.68,1.03,2.54,1.42l.73,4.96c.17,1.38,1.42,2.46,2.89,2.46h9.22c1.47,0,2.67-1.03,2.89-2.41l.73-5c.86-.39,1.68-.86,2.54-1.42l4.87,1.9c.34,.13,.69,.17,1.03,.17,1.03,0,2.03-.52,2.5-1.42l4.61-7.8c.69-1.25,.39-2.76-.73-3.62h0Zm-12.72-4.53c0,5.69-4.66,10.34-10.34,10.34s-10.34-4.66-10.34-10.34,4.66-10.34,10.34-10.34,10.34,4.66,10.34,10.34Z"/></g><rect class="cls-1" width="48.32" height="48.32"/></g></g></svg>