<?xml version="1.0" encoding="UTF-8"?><svg id="_层_2" xmlns="http://www.w3.org/2000/svg" viewBox="0 0 48.32 48.32"><defs><style>.cls-1{fill:none;}.cls-2{fill:#f94f56;}.cls-3{fill:#172d72;}</style></defs><g id="_层_1-2"><g><g><path class="cls-3" d="M24.16,0C10.7,0,0,10.7,0,24.16s10.7,24.16,24.16,24.16,24.16-10.7,24.16-24.16S37.62,0,24.16,0Zm0,41.42c-9.66,0-17.26-7.59-17.26-17.26S14.5,6.9,24.16,6.9s17.26,7.59,17.26,17.26-7.59,17.26-17.26,17.26Z"/><path class="cls-2" d="M25.89,30.15v-4.59s-7.96-.88-12.61,5.74c0,0,1.46-12.63,12.61-12.63v-4.59l8.02,8.03-8.02,8.03h0Z"/></g><rect class="cls-1" width="48.32" height="48.32"/></g></g></svg>