<svg xmlns="http://www.w3.org/2000/svg" viewBox="0 0 48.32 48.42"><defs><style>.cls-1{fill:#f84f56;}.cls-2{fill:#172d72;}.cls-3{fill:none;}</style></defs><g id="图层_2" data-name="图层 2"><g id="图层_1-2" data-name="图层 1"><path class="cls-1" d="M23.48,3.5l.24,41.92a29.62,29.62,0,0,1-10.79-6.68C2.53,28.5,4.45,14,4.78,11.79Z"/><rect class="cls-1" x="22.59" y="4.56" width="1.68" height="39.1"/><path class="cls-2" d="M43.11,8.14A44,44,0,0,1,34.4,6.08C31,4.85,28,3.34,26.4,1.42l-.14-.14-.14-.13C26,1.15,26,1,25.83,1s-.14-.14-.28-.14-.14-.14-.29-.14S25.12.6,25,.6H23.26c-.14,0-.14,0-.28.13s-.14,0-.29.14-.14.14-.28.14-.15.14-.29.14L22,1.28l-.14.14c-1.72,1.92-4.72,3.43-8,4.66A52.79,52.79,0,0,1,5.13,8.14a2.85,2.85,0,0,0-2.57,2.74c0,6.86.43,14.54,3.14,21.26a27.49,27.49,0,0,0,8.71,11.65A19.06,19.06,0,0,0,19,46.53c1.86,1,4.14,2.47,6.28,1.65a29.47,29.47,0,0,0,14-10.29A29,29,0,0,0,42.4,32c2.71-6.72,3.14-14.4,3.14-21.26C45.68,9.51,44.54,8.41,43.11,8.14ZM37.26,30.22a21.75,21.75,0,0,1-13,12.61,21.73,21.73,0,0,1-13-12.61c-2-5.08-2.57-11-2.71-17A49.91,49.91,0,0,0,16,11.29,27.57,27.57,0,0,0,24.26,7a27.8,27.8,0,0,0,8.28,4.25A46.14,46.14,0,0,0,40,13.21C39.83,19.25,39.25,25.14,37.26,30.22Z"/><rect class="cls-3" x="0.21" width="48.11" height="48.22"/><rect class="cls-3" y="0.1" width="48.11" height="48.22"/></g></g></svg>