<?xml version="1.0" encoding="UTF-8"?><svg id="_层_2" xmlns="http://www.w3.org/2000/svg" viewBox="0 0 48.37 48.32"><defs><style>.cls-1{fill:none;}.cls-2{fill:#f94f56;}.cls-3{fill:#172d72;}</style></defs><g id="_层_1-2"><g><g><path class="cls-3" d="M26.12,3.33c-.74-.35-1.61-.23-2.24,.29L11.79,13.68l-9.65-.04c-.55,0-1.09,.22-1.48,.61-.4,.39-.62,.93-.62,1.49l-.04,16.82c0,.56,.22,1.1,.61,1.49,.39,.4,.93,.62,1.49,.62H11.86l12.03,10.03c.38,.32,.86,.49,1.35,.49,.3,0,.61-.07,.89-.2,.74-.35,1.21-1.09,1.21-1.9V5.23c0-.81-.47-1.56-1.21-1.9h0Z"/><path class="cls-2" d="M34.28,13.84c-1.04-.49-2.27-.04-2.77,.99-.5,1.04-.07,2.29,.96,2.81,.13,.07,3.28,1.71,3.28,6.37,0,4.98-2.95,6.63-3.04,6.69-1.04,.52-1.46,1.78-.94,2.82,.37,.74,1.11,1.16,1.88,1.16,.32,0,.64-.07,.94-.22,.22-.11,5.37-2.78,5.37-10.45s-5.44-10.05-5.68-10.16h0Z"/><path class="cls-2" d="M40.83,7.67c-.97-.62-2.26-.34-2.89,.63-.63,.97-.35,2.27,.61,2.91,.23,.15,5.61,3.82,5.61,12.96s-5.17,12.83-5.37,12.97c-.97,.65-1.23,1.95-.58,2.92,.4,.61,1.07,.94,1.75,.94,.4,0,.81-.12,1.17-.35,.3-.2,7.24-4.96,7.24-16.47s-7.23-16.29-7.54-16.49h0Z"/></g><rect class="cls-1" x=".05" width="48.32" height="48.32"/></g></g></svg>