<svg xmlns="http://www.w3.org/2000/svg" viewBox="0 0 48.41 48.32"><defs><style>.cls-1{fill:#172d72;}.cls-2{fill:#f84f56;}.cls-3{fill:none;}</style></defs><g id="图层_2" data-name="图层 2"><g id="图层_1-2" data-name="图层 1"><path class="cls-1" d="M0,15.8l2.83-1.39L15.34,8.28,24,4a.43.43,0,0,1,.41,0L34.77,9.12l13.36,6.55.28.14-2.94,1.44-14.25,7-6.78,3.33a.47.47,0,0,1-.46,0l-10.25-5L.28,16Z"/><path class="cls-1" d="M0,24.47,5.14,22a.36.36,0,0,1,.35,0l5.72,2.81c3.86,1.9,7.74,3.79,11.6,5.7a3,3,0,0,0,2.82,0q6.71-3.31,13.44-6.61L42.92,22a.32.32,0,0,1,.34,0l5.13,2.51a1.08,1.08,0,0,1-.36.2L36.61,30.27c-4,1.94-7.91,3.88-11.85,5.83a1.09,1.09,0,0,1-1.09,0c-4.06-2-8.15-4-12.22-6L.27,24.61Z"/><path class="cls-2" d="M0,32.52l4.49-2.21c.14-.07.23,0,.34,0l5.64,2.76c4.1,2,8.21,4,12.3,6a3,3,0,0,0,2.82,0q8.93-4.41,17.86-8.78a.52.52,0,0,1,.54,0c1.35.68,2.71,1.34,4.07,2l.25.14c-.05.09-.15.11-.22.14L28.71,42.18c-1.42.7-2.84,1.39-4.25,2.1a.52.52,0,0,1-.5,0L7.57,36.22.35,32.68Z"/><rect class="cls-3" x="0.05" width="48.32" height="48.32"/></g></g></svg>