<?xml version="1.0" encoding="UTF-8"?><svg id="_层_2" xmlns="http://www.w3.org/2000/svg" viewBox="0 0 48.32 48.32"><defs><style>.cls-1{fill:none;}.cls-2{fill:#f94f56;}.cls-3{fill:#172d72;}</style></defs><g id="_层_1-2"><g><circle class="cls-2" cx="24.24" cy="23.75" r="5.93"/><path class="cls-3" d="M48.02,22.77c-.43-.65-10.65-15.98-23.78-15.98-2.27,0-4.58,.48-6.91,1.39L13.2,1.01c-.49-.87-1.6-1.17-2.46-.68-.87,.49-1.17,1.6-.68,2.46v.02l4.02,6.93c-.8,.45-1.6,.95-2.4,1.5-.82,.57-1.02,1.7-.45,2.51,.57,.82,1.7,1.02,2.51,.45,.72-.5,1.43-.92,2.15-1.32l2.39,4.15c-1.94,1.7-3.05,4.15-3.06,6.72,0,4.98,4.04,9.02,9.03,9.03,.97-.01,1.93-.18,2.84-.5l2.25,3.9c-1.63,.6-3.35,.92-5.09,.94-9.42,0-17.65-10.11-20.06-13.36,.6-.81,1.55-2.04,2.79-3.43,.68-.72,.65-1.87-.07-2.55s-1.87-.65-2.55,.07c-.02,.03-.05,.05-.07,.08-2.37,2.66-3.76,4.75-3.81,4.84-.4,.6-.4,1.38,0,1.98,.43,.65,10.66,15.98,23.78,15.98,2.42,0,4.74-.53,6.92-1.38l4.13,7.16c.5,.86,1.61,1.15,2.47,.64,.85-.5,1.14-1.59,.66-2.45l-4.01-6.94c7.89-4.49,13.3-12.55,13.6-13.01,.4-.6,.4-1.38,0-1.98Zm-23.78,6.41c-2.99,0-5.41-2.43-5.42-5.42,0-1.34,.51-2.55,1.31-3.5l5.09,8.81c-.32,.06-.65,.1-.99,.1Zm4.1-1.92l-5.09-8.81c.32-.06,.65-.1,.98-.1,2.99,0,5.42,2.43,5.42,5.42,0,1.34-.51,2.55-1.31,3.5Zm4.27,7.4l-2.41-4.17c1.94-1.7,3.05-4.15,3.06-6.72,0-4.98-4.04-9.02-9.03-9.03-.97,.01-1.92,.18-2.84,.5l-2.25-3.89c1.63-.6,3.35-.92,5.08-.94,9.42,0,17.65,10.11,20.05,13.36-1.65,2.23-6.04,7.68-11.68,10.89Z"/><rect class="cls-1" width="48.32" height="48.32"/></g></g></svg>