<svg xmlns="http://www.w3.org/2000/svg" viewBox="0 0 48.32 48.32"><defs><style>.cls-1{fill:#172d72;}.cls-2{fill:#f84f56;}.cls-3{fill:none;}</style></defs><g id="图层_2" data-name="图层 2"><g id="图层_1-2" data-name="图层 1"><path class="cls-1" d="M46.59,32.52H31.92c0,3.17-3.47,5.74-7.76,5.74s-7.76-2.57-7.76-5.74H1.72a.92.92,0,0,0-.87,1V46.12a.92.92,0,0,0,.87,1H46.59a.92.92,0,0,0,.88-1V33.48A.92.92,0,0,0,46.59,32.52ZM37.26,44.29A1.78,1.78,0,1,1,39,42.51,1.77,1.77,0,0,1,37.26,44.29Zm5.42,0a1.78,1.78,0,1,1,1.78-1.78A1.78,1.78,0,0,1,42.68,44.29Z"/><path class="cls-2" d="M23.85,1.38,10,17.05a.41.41,0,0,0,.3.68H38a.41.41,0,0,0,.31-.68L24.46,1.38A.41.41,0,0,0,23.85,1.38Z"/><rect class="cls-2" x="15.35" y="19.79" width="17.62" height="10.38" rx="0.48" transform="translate(-0.82 49.14) rotate(-90)"/><rect class="cls-3" width="48.32" height="48.32"/></g></g></svg>